<svg width="1024" height="1024" viewBox="0 0 1024 1024" fill="none" xmlns="http://www.w3.org/2000/svg">
<path d="M276.866 614H178.003L401.085 177.636H519.977L597.96 614H499.097L446.043 277.352H442.634L276.866 614ZM299.452 442.48H532.974L520.616 514.497H287.094L299.452 442.48Z" fill="black"/>
<path d="M732.871 468.945C731.45 454.622 725.354 443.495 714.582 435.564C703.811 427.633 689.192 423.668 670.726 423.668C658.179 423.668 647.584 425.443 638.943 428.994C630.302 432.427 623.673 437.221 619.057 443.376C614.559 449.532 612.31 456.516 612.31 464.328C612.073 470.839 613.434 476.52 616.393 481.374C619.471 486.227 623.673 490.429 629 493.98C634.327 497.413 640.482 500.431 647.466 503.036C654.45 505.521 661.907 507.652 669.838 509.428L702.509 517.24C718.37 520.791 732.93 525.526 746.188 531.445C759.445 537.363 770.927 544.643 780.634 553.284C790.34 561.925 797.857 572.105 803.183 583.824C808.628 595.543 811.41 608.978 811.528 624.129C811.41 646.383 805.728 665.678 794.483 682.013C783.356 698.23 767.258 710.836 746.188 719.832C725.236 728.71 699.964 733.149 670.371 733.149C641.015 733.149 615.446 728.651 593.666 719.655C572.004 710.659 555.077 697.342 542.885 679.705C530.811 661.949 524.478 639.991 523.886 613.831H598.283C599.111 626.023 602.603 636.203 608.759 644.371C615.032 652.42 623.377 658.516 633.794 662.659C644.329 666.684 656.225 668.696 669.483 668.696C682.504 668.696 693.808 666.802 703.396 663.014C713.103 659.226 720.619 653.959 725.946 647.212C731.273 640.464 733.936 632.711 733.936 623.952C733.936 615.784 731.509 608.919 726.656 603.355C721.921 597.792 714.938 593.057 705.705 589.151C696.59 585.244 685.404 581.693 672.146 578.497L632.551 568.554C601.893 561.097 577.686 549.437 559.93 533.575C542.175 517.714 533.356 496.348 533.474 469.477C533.356 447.46 539.215 428.225 551.053 411.771C563.008 395.318 579.402 382.474 600.236 373.241C621.069 364.009 644.743 359.392 671.259 359.392C698.247 359.392 721.803 364.009 741.926 373.241C762.168 382.474 777.911 395.318 789.156 411.771C800.402 428.225 806.202 447.283 806.557 468.945H732.871Z" fill="black"/>
<path d="M456.409 891H353.284V600.091H457.261C486.523 600.091 511.712 605.915 532.83 617.562C553.947 629.116 570.188 645.735 581.551 667.42C593.009 689.106 598.739 715.053 598.739 745.261C598.739 775.564 593.009 801.606 581.551 823.386C570.188 845.167 553.852 861.881 532.545 873.528C511.333 885.176 485.955 891 456.409 891ZM414.79 838.301H453.852C472.034 838.301 487.328 835.081 499.733 828.642C512.233 822.108 521.608 812.023 527.858 798.386C534.203 784.655 537.375 766.947 537.375 745.261C537.375 723.765 534.203 706.199 527.858 692.562C521.608 678.926 512.28 668.888 499.875 662.449C487.47 656.009 472.176 652.79 453.994 652.79H414.79V838.301Z" fill="black"/>
</svg>
